<?xml version="1.0" standalone="no"?>
<!DOCTYPE svg PUBLIC "-//W3C//DTD SVG 20010904//EN"
 "http://www.w3.org/TR/2001/REC-SVG-20010904/DTD/svg10.dtd">
<svg version="1.0" xmlns="http://www.w3.org/2000/svg"
 width="700.000000pt" height="700.000000pt" viewBox="0 0 700.000000 700.000000"
 preserveAspectRatio="xMidYMid meet">
<metadata>
Created by potrace 1.14, written by Peter Selinger 2001-2017
</metadata>
<g transform="translate(0.000000,700.000000) scale(0.100000,-0.100000)"
fill="#000000" stroke="none">
<path d="M2115 6642 c-38 -2 -74 -7 -78 -11 -9 -9 -14 -334 -22 -1521 -18
-2755 -24 -3473 -31 -3479 -10 -11 -167 -18 -554 -26 -761 -16 -815 -19 -852
-53 -21 -18 -23 -55 -5 -70 7 -6 26 -14 42 -18 17 -4 356 -9 755 -11 l725 -5
717 -441 c395 -243 726 -446 735 -452 10 -5 90 -53 178 -106 167 -101 372
-217 415 -235 26 -11 51 -7 85 13 16 9 21 26 27 95 12 152 -2 4266 -16 4893
-3 94 -5 186 -5 205 -1 33 -6 39 -68 75 -38 21 -120 69 -183 105 -63 37 -135
78 -160 92 -25 14 -268 152 -540 308 -272 155 -511 291 -530 302 -139 78 -261
151 -266 159 -3 5 3 9 13 10 10 1 38 3 63 5 67 7 2190 11 2191 4 1 -3 2 -984
4 -2180 3 -2295 8 -2837 29 -2857 13 -13 174 -17 711 -17 857 -1 916 5 923 81
4 41 -23 59 -103 69 -51 7 -702 7 -1229 1 -99 -1 -160 2 -162 8 -2 5 -5 1117
-8 2470 -3 1353 -7 2476 -9 2495 -2 19 -5 43 -6 52 -3 42 -13 42 -1396 43
-726 0 -1351 -1 -1390 -3z m620 -512 c292 -166 550 -314 575 -328 25 -14 88
-50 140 -80 52 -30 120 -68 150 -85 30 -16 60 -33 65 -37 6 -4 28 -18 50 -30
22 -12 115 -65 206 -117 l167 -94 1 -382 c2 -495 11 -1906 16 -2437 6 -664 7
-2132 1 -2137 -3 -3 -204 118 -448 268 -244 150 -681 420 -973 600 l-530 327
2 738 c3 1375 14 2841 28 3774 2 118 4 241 4 273 1 32 4 56 9 54 4 -3 246
-141 537 -307z"/>
<path d="M2578 5834 c-39 -21 -48 -42 -56 -141 -9 -111 -9 -1888 0 -2041 4
-64 12 -119 19 -128 16 -20 141 -106 479 -331 479 -319 485 -322 511 -316 26
7 108 60 110 71 1 4 2 530 3 1170 1 1023 -1 1165 -14 1176 -8 7 -31 19 -50 26
-19 8 -65 31 -102 52 -37 21 -84 47 -105 59 -21 12 -104 59 -184 104 -336 191
-567 316 -581 315 -1 -1 -15 -7 -30 -16z m197 -245 c152 -86 164 -93 360 -206
364 -212 342 -196 351 -243 8 -41 11 -1501 4 -1838 l-5 -233 -180 122 c-99 67
-280 189 -402 271 -194 131 -223 154 -224 177 -3 159 -3 2001 1 2001 3 0 46
-23 95 -51z"/>
<path d="M3042 2868 c-11 -14 -15 -33 -13 -59 2 -35 87 -95 286 -204 71 -39
73 -42 80 -120 19 -221 32 -276 78 -337 38 -50 69 -68 115 -68 48 0 120 75
151 156 28 75 50 200 41 234 -8 30 -78 80 -255 182 -373 214 -454 250 -483
216z m553 -443 c33 -32 36 -120 6 -156 -22 -27 -21 -27 -40 51 -29 125 -18
158 34 105z"/>
<path d="M5654 5824 c-5 -1 -26 -5 -47 -9 -57 -9 -70 -36 -81 -170 -16 -175
-29 -1039 -17 -1129 4 -37 12 -54 32 -69 25 -18 44 -19 250 -20 123 0 254 3
292 7 61 7 68 10 75 34 14 51 4 1037 -13 1205 -14 149 -16 150 -286 152 -107
1 -199 0 -205 -1z m344 -143 c9 -1 12 -117 12 -546 l0 -545 -174 0 -175 0 0
544 0 545 22 3 c18 2 274 2 315 -1z"/>
</g>
</svg>
